<?xml version="1.0" encoding="UTF-8"?>
<svg id="Layer_2" data-name="Layer 2" xmlns="http://www.w3.org/2000/svg" xmlns:xlink="http://www.w3.org/1999/xlink" viewBox="0 0 11.16 9.26">
  <defs>
    <style>
      .cls-1 {
        fill: url(#linear-gradient-7);
      }

      .cls-2 {
        fill: url(#linear-gradient-5);
      }

      .cls-3 {
        fill: url(#linear-gradient-6);
      }

      .cls-4 {
        fill: url(#linear-gradient-4);
      }

      .cls-5 {
        fill: url(#linear-gradient-3);
      }

      .cls-6 {
        fill: url(#linear-gradient-2);
      }

      .cls-7 {
        fill: url(#linear-gradient);
      }
    </style>
    <linearGradient id="linear-gradient" x1="5.38" y1="10.25" x2="5.61" y2=".67" gradientUnits="userSpaceOnUse">
      <stop offset="0" stop-color="#3564f1"/>
      <stop offset="1" stop-color="#1239ac"/>
    </linearGradient>
    <linearGradient id="linear-gradient-2" x1="2.61" y1="10.19" x2="2.85" y2=".61" xlink:href="#linear-gradient"/>
    <linearGradient id="linear-gradient-3" x1="3.07" y1="10.2" x2="3.3" y2=".62" xlink:href="#linear-gradient"/>
    <linearGradient id="linear-gradient-4" x1="4.92" y1="10.24" x2="5.15" y2=".66" xlink:href="#linear-gradient"/>
    <linearGradient id="linear-gradient-5" x1="5.46" y1="10.26" x2="5.69" y2=".67" xlink:href="#linear-gradient"/>
    <linearGradient id="linear-gradient-6" x1="7.93" y1="10.32" x2="8.17" y2=".74" xlink:href="#linear-gradient"/>
    <linearGradient id="linear-gradient-7" x1="7.94" y1="10.32" x2="8.17" y2=".74" xlink:href="#linear-gradient"/>
  </defs>
  <g id="Layer_1-2" data-name="Layer 1">
    <g id="jRJc6J">
      <g>
        <path class="cls-7" d="M5.37,0c.07-.01.17.1.22.16.47.54.49,1.39.05,1.95-.02.03-.14.17-.17.18-.11.07-.23-.02-.2-.13,0-.02.16-.18.19-.22.34-.47.34-1.13-.02-1.59-.04-.05-.16-.14-.17-.2-.01-.06.03-.14.09-.15Z"/>
        <path class="cls-6" d="M3,.02c.1-.02.18.03.15.14,0,.03-.18.22-.21.27-.3.46-.3,1.06.02,1.51.07.09.27.23.17.34-.12.15-.34-.17-.4-.26-.35-.54-.33-1.23.04-1.75.04-.05.17-.23.23-.24Z"/>
        <path class="cls-5" d="M3.52,1.91c-.11.11-.26-.1-.32-.18-.25-.38-.23-.87.06-1.21.05-.06.17-.19.25-.1.1.11-.11.24-.17.35-.14.25-.13.58.02.83.05.09.24.22.15.32Z"/>
        <path class="cls-4" d="M4.98.38c.1-.02.26.21.3.29.18.33.16.71-.03,1.03-.06.09-.2.3-.32.21s.06-.21.11-.28c.23-.31.19-.7-.03-1-.03-.03-.11-.09-.11-.12-.02-.05.04-.13.09-.14Z"/>
        <g>
          <path class="cls-2" d="M.27,1.95l.29,1.06c.12.18.43.36.45.59.01.13.03.36-.16.33v.03c.09.05.17.15.27.21.17.12.41.19.44.43.01.13-.01.26-.03.39.23.19.45.39.65.62.02-.13-.16-.2-.24-.28-.14-.13-.08-.23-.11-.39-.02-.13-.18-.49-.25-.6-.07-.09-.18-.19-.23-.28-.08-.16-.08-.39-.17-.55-.08-.14-.27-.28-.32-.43-.04-.11-.06-.45-.06-.57,0-.15.05-.24.22-.2.08.02.49.29.54.36.16.23.19.67.32.9.11.19.49.39.54.61.01.05,0,.1.02.15.03.07.16.1.19.21.03.1,0,.13,0,.21,0,.12.21.17.27.28-.02-.05,0-.07,0-.12.15-.56.42-1.23.61-1.79.18-.51.36-1.02.57-1.52v-.03c-.55-.24-.2-1.04.35-.81.38.16.35.69-.03.83l.68,1.74c.08-.07.24,0,.33.04.13.06.35.22.43.34.05.08.25.48.3.51.24-.49.64-.9,1.16-1.1,1.72-.65,3.36.84,2.86,2.61-.09.33-.26.58-.47.84l1.33,1.37c.37.33.14.95-.38.82-.21-.05-.57-.53-.74-.7-.32-.32-.64-.64-.96-.96-.1-.03-.14.28-.18.35-.12.27-.3.23-.55.3-.2.05-.51.2-.7.11-.05-.03-.1-.07-.15-.1-.21-.11-.33-.07-.49-.31-.08-.12-.33-.58-.34-.69,0-.05.02-.14.01-.16s-.24-.3-.28-.37c-.32-.52-.38-1.17-.22-1.76-.06-.09-.13-.17-.19-.26-.18-.28-.31-.62-.68-.67-.02,0-.03-.03-.03.01l.51,1.39c.03.08-.05.16-.13.16-.1,0-.39-.22-.5-.28-.26-.15-.51-.29-.77-.43-.3.17-.6.34-.9.52-.07.04-.28.2-.35.19-.03,0-.05-.04-.08-.05l.8,1.09c.02.19.17.41.06.6-.08.14-.18.07-.06.29s.3.22.47.36c.06.05.09.11.14.16.17.16.39.16.57.25.1.05.2.16.31.22.25.14,1.28.57,1.54.6.2.02.39-.15.58-.16.3-.02.67.34.89.52,0-.13.02-.29.13-.37.1-.07.26-.06.38-.07-.1-.12-.24-.2-.19-.38,0-.03.09-.17.11-.19.11-.11.44-.03.59-.06.08-.02.18-.22.29-.11.13.13-.15.34-.28.35-.09,0-.4-.01-.45.03-.07.06.05.13.09.18.08.11.16.18.09.32-.09.19-.39.05-.48.14-.1.11.06.48-.2.47-.14,0-.31-.22-.41-.31-.15-.12-.38-.3-.57-.27-.24.04-.31.18-.62.14s-1.29-.46-1.58-.62c-.09-.05-.19-.15-.28-.19-.2-.09-.43-.12-.62-.27-.07-.05-.11-.13-.18-.19-.09-.07-.22-.11-.32-.18-.16-.13-.41-.51-.21-.69.02-.02.07-.03.07-.04.04-.06-.09-.4-.11-.48-.27-.29-.49-.73-.76-1.01-.11-.11-.29-.17-.31-.36,0-.04.01-.16,0-.18-.02-.04-.15-.09-.19-.23-.01-.05,0-.15-.02-.18-.06-.12-.36-.32-.47-.45-.17-.22-.22-.72-.37-.99l-.31-.21c-.05,0,0,.02,0,.02v.28c0,.22.26.37.35.55.07.15.08.4.15.53.05.08.16.18.22.26.11.16.26.57.29.76,0,.06,0,.12.01.17.14.11.27.15.33.33.05.15.01.24-.12.31-.24.13-.21.01-.33-.13-.11-.13-.27-.27-.39-.39-.06-.05-.17-.12-.21-.18-.09-.14.08-.39-.04-.55-.15-.11-.32-.19-.46-.31-.05-.04-.3-.28-.31-.32-.08-.19.12-.19.25-.18v-.16s-.44-.48-.44-.48L0,1.88c-.02-.07.03-.14.1-.15.11-.02.61-.02.71,0,.09.02.61.33.74.39.16.09.32.19.49.28.42.04.91-.04,1.31,0,.15.02.14.2.03.22h-1.38c-.37-.17-.71-.4-1.07-.59-.03-.02-.18-.1-.2-.1h-.48ZM4.43,1.16c0-.12-.1-.21-.21-.21s-.21.1-.21.21.1.21.21.21.21-.1.21-.21ZM4.4,2.27l-.19-.5-.19.5h.38ZM4.47,2.5h-.49s-.08.19-.08.19l.32.22.31-.2-.07-.21ZM4.79,3.35l-.16-.45s-.22.14-.21.17l.37.28ZM3.65,3.35l.37-.29s-.19-.16-.22-.14l-.15.43ZM9.98,5.1c0-1.06-.86-1.92-1.92-1.92s-1.92.86-1.92,1.92.86,1.92,1.92,1.92,1.92-.86,1.92-1.92ZM4.84,3.69l-.63-.46-.61.44.61.37.62-.35ZM5.26,4.67l-.29-.82-.54.32.83.5ZM4,4.17l-.53-.3-.28.82.82-.52ZM9.16,6.96s0,.03.02.04c.02.03.26.28.28.28.05-.03.24-.21.24-.26l-.23-.26-.31.2ZM8.56,7.17c-.63.16-1.34.02-1.84-.4l.37.63c.15.12.35.13.49.26.19-.01.37-.09.56-.14.25-.07.4,0,.42-.34ZM10.87,8.49c.09-.08.07-.24-.01-.32l-.94-.94c-.06-.04-.11.08-.14.13-.03.04-.14.12-.13.16l.92.97c.09.07.21.1.3.01Z"/>
          <g>
            <path class="cls-3" d="M9.65,5.1c0,.88-.71,1.59-1.59,1.59s-1.59-.71-1.59-1.59.71-1.59,1.59-1.59,1.59.71,1.59,1.59ZM9.41,5.1c0-.75-.6-1.35-1.35-1.35s-1.35.6-1.35,1.35.6,1.35,1.35,1.35,1.35-.6,1.35-1.35Z"/>
            <path class="cls-1" d="M7.83,5.34s.05-.02.07-.04c.27-.27.51-.57.78-.83.15-.09.28.07.19.21-.23.24-.46.5-.69.74-.04.04-.25.26-.28.27-.05.01-.12,0-.16-.03-.13-.16-.32-.31-.44-.48s0-.32.17-.25c.02,0,.3.31.34.36.01.01.02.03.02.05Z"/>
          </g>
        </g>
      </g>
    </g>
  </g>
</svg>