<?xml version="1.0" encoding="UTF-8"?>
<svg id="Layer_2" data-name="Layer 2" xmlns="http://www.w3.org/2000/svg" xmlns:xlink="http://www.w3.org/1999/xlink" viewBox="0 0 6.95 7">
  <defs>
    <style>
      .cls-1 {
        fill: url(#linear-gradient-2);
      }

      .cls-2 {
        fill: url(#linear-gradient);
      }
    </style>
    <linearGradient id="linear-gradient" x1="3.47" y1="-2.06" x2="3.47" y2="7.76" gradientUnits="userSpaceOnUse">
      <stop offset=".03" stop-color="#3564f1"/>
      <stop offset="1" stop-color="#1239ac"/>
    </linearGradient>
    <linearGradient id="linear-gradient-2" x1="3.05" y1="-2.06" x2="3.05" y2="7.76" gradientUnits="userSpaceOnUse">
      <stop offset="0" stop-color="#3564f1"/>
      <stop offset="1" stop-color="#1239ac"/>
    </linearGradient>
  </defs>
  <g id="Layer_1-2" data-name="Layer 1">
    <g>
      <path class="cls-2" d="M2.07,1.02h.72V.23s-.02-.03-.02-.07c.03-.24.38-.14.38-.05v.91c.09,0,.69.08.69-.01V.11c0-.12.36-.16.36,0v.91h.69V.14c0-.16.39-.19.39.03v.85c.42-.05.75.23.69.66h.82c.24,0,.17.42.06.42h-.88v.66h.85s.11.1.12.12c.05.1-.01.3-.12.3h-.85v.66h.88c.13,0,.13.39,0,.39h-.88v.63h.88c.08,0,.26.4-.15.45-.23.03-.5-.02-.73,0,.05.4-.3.7-.69.66-.03.17.06.91-.05.99s-.34.02-.34-.11v-.88h-.64s-.04.04-.04.04v.87c0,.17-.36.14-.36.03v-.94h-.69v.94c0,.12-.36.12-.36,0v-.94h-.72v.88c0,.11-.25.25-.36.09-.09-.14,0-.93-.03-.97-.27.05-.6-.15-.67-.42-.02-.06,0-.24-.01-.24H.2c-.14,0-.24-.2-.18-.33,0-.02.11-.12.12-.12h.85v-.63H.11S0,4.11,0,4.06c0-.06.06-.22.11-.22h.88v-.66H.14c-.1,0-.16-.2-.12-.3,0-.02.11-.12.12-.12h.85v-.66H.11c-.08,0-.17-.27-.01-.37s.86-.01.9-.05c-.04-.4.29-.72.69-.66V.17s.06-.12.07-.13c.09-.09.32-.02.32.1v.88ZM3.26,2.37c-.11,0-.38-.05-.44.04l-.72,2.05c.08-.02.34.03.38,0,.05-.03.04-.37.23-.39.09-.01.69-.01.75,0,.09.03.13.35.17.38s.28-.01.35,0l-.72-2.09ZM4.88,2.37h-.42s0,2.1,0,2.1h.42s0-2.1,0-2.1Z"/>
      <path class="cls-1" d="M2.77,3.77s-.06-.04-.03-.06c.08-.1.26-.82.3-.84.06-.02.04.03.06.06.07.17.25.61.27.78,0,.03-.02.06-.03.06-.14,0-.46.03-.57,0Z"/>
    </g>
  </g>
</svg>