<?xml version="1.0" encoding="UTF-8"?>
<svg id="Layer_2" data-name="Layer 2" xmlns="http://www.w3.org/2000/svg" xmlns:xlink="http://www.w3.org/1999/xlink" viewBox="0 0 6.45 7.58">
  <defs>
    <style>
      .cls-1 {
        fill: url(#linear-gradient-4);
      }

      .cls-2 {
        fill: url(#linear-gradient-3);
      }

      .cls-3 {
        fill: url(#linear-gradient-2);
      }

      .cls-4 {
        fill: url(#linear-gradient);
      }
    </style>
    <linearGradient id="linear-gradient" x1="3.23" y1="-.97" x2="3.23" y2="8.84" gradientUnits="userSpaceOnUse">
      <stop offset="0" stop-color="#3564f1"/>
      <stop offset="1" stop-color="#1239ac"/>
    </linearGradient>
    <linearGradient id="linear-gradient-2" x1="3.23" x2="3.23" xlink:href="#linear-gradient"/>
    <linearGradient id="linear-gradient-3" x1=".73" y1="-.97" x2=".73" y2="8.84" xlink:href="#linear-gradient"/>
    <linearGradient id="linear-gradient-4" x1="5.73" x2="5.73" xlink:href="#linear-gradient"/>
  </defs>
  <g id="Layer_1-2" data-name="Layer 1">
    <g>
      <path class="cls-4" d="M3.46,2.65h1.86c.05,0,.32.14.38.18.35.3.2.84.23,1.24.36.17.55.4.49.83-.08.57-.87.8-1.24.36-.33-.39-.18-1.05.33-1.18-.03-.21.07-.77-.1-.92-.11-.1-.24-.05-.34-.05-.53-.04-1.07-.03-1.6-.03v1.02s.06,0,.09.02c.86.49.21,1.69-.64,1.3-.48-.22-.53-.92-.11-1.24.04-.03.23-.1.23-.13v-.92c0-.07-.53-.05-.61-.05-.35,0-.77-.03-1.09,0-.59.05-.32.58-.38,1,.85.34.54,1.56-.4,1.4-.51-.09-.68-.74-.39-1.13.1-.14.25-.18.36-.3-.05-.39-.09-.96.25-1.23.04-.03.3-.16.33-.16h1.93v-1.09c-.68-.12-.83-1.11-.24-1.44.81-.47,1.61.53,1.06,1.19-.08.1-.39.24-.39.27v1.07Z"/>
      <circle class="cls-3" cx="3.23" cy="6.85" r=".73"/>
      <circle class="cls-2" cx=".73" cy="6.85" r=".73"/>
      <circle class="cls-1" cx="5.73" cy="6.85" r=".73"/>
    </g>
  </g>
</svg>