<?xml version="1.0" encoding="UTF-8"?>
<svg id="Layer_2" data-name="Layer 2" xmlns="http://www.w3.org/2000/svg" xmlns:xlink="http://www.w3.org/1999/xlink" viewBox="0 0 7.85 8.49">
  <defs>
    <style>
      .cls-1 {
        fill: url(#linear-gradient-5);
      }

      .cls-2 {
        fill: url(#linear-gradient-6);
      }

      .cls-3 {
        fill: url(#linear-gradient-4);
      }

      .cls-4 {
        fill: url(#linear-gradient-3);
      }

      .cls-5 {
        fill: url(#linear-gradient-2);
      }

      .cls-6 {
        fill: url(#linear-gradient);
      }
    </style>
    <linearGradient id="linear-gradient" x1="3.93" y1="-.68" x2="3.93" y2="9.13" gradientUnits="userSpaceOnUse">
      <stop offset="0" stop-color="#3564f1"/>
      <stop offset="1" stop-color="#1239ac"/>
    </linearGradient>
    <linearGradient id="linear-gradient-2" x1="3.4" x2="3.4" xlink:href="#linear-gradient"/>
    <linearGradient id="linear-gradient-3" x1="2.95" x2="2.95" xlink:href="#linear-gradient"/>
    <linearGradient id="linear-gradient-4" x1="3.4" x2="3.4" xlink:href="#linear-gradient"/>
    <linearGradient id="linear-gradient-5" x1="2.95" x2="2.95" xlink:href="#linear-gradient"/>
    <linearGradient id="linear-gradient-6" x1="3.93" x2="3.93" xlink:href="#linear-gradient"/>
  </defs>
  <g id="Layer_1-2" data-name="Layer 1">
    <g id="okUDrz">
      <g>
        <path class="cls-6" d="M4.09,0c1.16-.03,2.16.81,2.37,1.94,0,.04.02.22.03.23.56.1,1.04.49,1.25,1.02.35.9-.15,1.9-1.07,2.17-.19.05-.5.09-.7.06s-.21-.35.02-.37c.19-.02.34.01.54-.04,1.29-.32,1.24-2.22-.08-2.47-.13-.03-.31,0-.34-.18-.02-.17-.01-.31-.05-.48C5.62,0,2.96-.15,2.3,1.67c-.04.1-.06.28-.14.33-.09.06-.26.02-.37.03-1.33.08-1.91,1.76-.91,2.64.33.29.6.34,1.02.38.23.02.22.34.02.37-.11.01-.28,0-.39-.03-.7-.13-1.3-.68-1.47-1.38C-.25,2.81.66,1.65,1.9,1.65,2.2.7,3.09.03,4.09,0Z"/>
        <g>
          <g>
            <path class="cls-5" d="M3.35,4.95c.1-.02.22.03.23.14,0,.04,0,.16,0,.2-.04.14-.24.18-.33.06-.08-.11-.06-.37.1-.4Z"/>
            <path class="cls-4" d="M3.09,4.99c.06.06.06.19.05.27-.02.17-.25.21-.34.06-.04-.07-.04-.22,0-.29.05-.11.21-.13.3-.04Z"/>
            <path class="cls-3" d="M3.37,3.82c.2-.03.23.16.22.32-.02.2-.34.2-.37,0-.02-.13,0-.29.15-.32Z"/>
            <path class="cls-1" d="M3.09,4.24c-.08.08-.24.06-.3-.04-.03-.07-.04-.22,0-.29.09-.15.32-.1.34.06,0,.08.01.21-.05.27Z"/>
          </g>
          <path class="cls-2" d="M5.07,5.93v.52l.38.41c.3-.13.65-.02.8.26.29.54-.3,1.13-.84.83-.3-.17-.4-.54-.24-.84l-.44-.48s-.04-.08-.04-.08v-.62h-.58v1.36c.36.13.54.55.35.89-.23.4-.82.41-1.06.02-.21-.34-.04-.79.34-.91v-1.36h-.59v.64s-.04.07-.05.08l-.42.45c.12.23.1.5-.07.7-.3.36-.88.26-1.04-.17s.18-.88.64-.84c.07,0,.13.04.2.05l.37-.4v-.52h-.17c-.16,0-.33-.17-.34-.33.02-.27-.02-.56,0-.83,0-.05.04-.12.04-.15,0-.02-.03-.06-.03-.08-.03-.13-.03-.73-.01-.89s.13-.29.28-.32c.92-.02,1.84-.02,2.76,0,.17.04.27.18.29.35s.02.71-.02.87c0,.02-.03.05-.03.07,0,.02.02.05.03.07.04.15.03.71.02.89-.02.16-.16.35-.34.35h-.18ZM2.64,3.68v.75h2.58v-.75h-2.58ZM2.64,4.81v.75h2.58v-.75h-2.58ZM2.38,7.41c0-.13-.11-.24-.24-.24s-.24.11-.24.24.11.24.24.24.24-.11.24-.24ZM5.96,7.41c0-.13-.11-.24-.24-.24s-.24.11-.24.24.11.24.24.24.24-.11.24-.24ZM4.17,7.88c0-.13-.11-.24-.24-.24s-.24.11-.24.24.11.24.24.24.24-.11.24-.24Z"/>
        </g>
      </g>
    </g>
  </g>
</svg>