<?xml version="1.0" encoding="UTF-8"?>
<svg id="Layer_2" data-name="Layer 2" xmlns="http://www.w3.org/2000/svg" xmlns:xlink="http://www.w3.org/1999/xlink" viewBox="0 0 8.08 7.87">
  <defs>
    <style>
      .cls-1 {
        fill: url(#linear-gradient);
      }
    </style>
    <linearGradient id="linear-gradient" x1="4.04" y1="-1.62" x2="4.04" y2="8.19" gradientUnits="userSpaceOnUse">
      <stop offset="0" stop-color="#3564f1"/>
      <stop offset="1" stop-color="#1239ac"/>
    </linearGradient>
  </defs>
  <g id="Layer_1-2" data-name="Layer 1">
    <path class="cls-1" d="M4.01,2.43h.73s.28-.27.29-.29c.04-.07.05-.48.03-.52,0-.01-.2-.09-.27-.16-.35-.36-.15-1.09.34-1.19.9-.19,1.2.99.51,1.33-.04.02-.12.01-.13.02-.02.02.03.53-.03.67-.03.08-.57.59-.64.59h-.84v.56s.18.05.25.05c.28.01.72.03.99,0,.09,0,.13-.02.21-.06.28-.15.63-.69.91-.89-.07-.26-.08-.55.12-.77.49-.55,1.48.12,1.05.81-.21.34-.53.32-.88.28-.36.34-.69.73-1.08,1.04h-1.59v.58h1.62c.13.08.79.85.85.85h.73v-.53s-.21-.15-.25-.19c-.26-.27-.2-.79.12-1,.67-.43,1.41.49.73,1.07-.05.05-.16.06-.18.12-.11.34.24.93-.36,1-.15.02-.75.02-.87-.02-.25-.08-.8-.87-.94-.87h-1.45v.61h.84c.11,0,.65.71.82.72.06,0,.13-.03.2-.03.7.04.87,1.04.22,1.33-.47.2-1-.2-.94-.7.01-.12.12-.26.12-.32,0-.04-.48-.56-.52-.56h-.73v1.21c0,.06-.17.33-.22.39-.26.28-.77.41-1.09.17l.4-.56c.14-.3.23-.65.07-.97-.08-.15-.31-.22-.34-.06,0,.05.1.32.1.47,0,.21-.15.57-.3.73-.49.52-1.04-.18-.61-.61.08-.08.35-.16.28-.31-.09-.18-.34-.08-.46.02-.24.19-.17.48-.54.34-.97-.36-.4-1.83.45-2.04.18-.04.78.07.63-.26-.13-.29-.8-.03-1.01.08-.13.07-.26.18-.36.29-.13.15-.19.31-.29.46-.07.1-.12.03-.2-.03-.59-.45-.66-1.32-.17-1.88.04-.05.16-.11.17-.14,0-.02-.09-.24-.1-.34-.03-.37.07-.69.28-.98.03-.05.18-.27.23-.23.04.29.23.58.43.78.21.23.61.39.39.8-.16.29-.54.14-.59.22-.07.1.02.22.14.24.25.04.58-.08.73-.29.13-.2.06-.41.34-.26.65.35.98,1.61.23,2.01-.11.06-.36.08-.35.22.04.28.48.09.62-.01.59-.43.54-1.5.13-2.04-.52-.69-1.94-.93-1.74-2.08.05-.28.45-.81.77-.7.07.02.55.31.63.36.25.17.48.52.33.83-.1.2-.33.22-.51.11-.09-.06-.3-.44-.43-.19-.1.2.18.43.35.51.85.4,1.17-.65.73-1.24-.15-.2-.63-.48-.7-.63-.05-.11.33-.31.42-.33.36-.11.77-.05,1.01.26.06.07.19.32.19.39v1.72ZM5.54.96c0-.12-.1-.22-.22-.22s-.22.1-.22.22.1.22.22.22.22-.1.22-.22ZM7.18,2.22c0-.1-.08-.19-.19-.19s-.19.08-.19.19.08.19.19.19.19-.08.19-.19ZM7.63,4.18c0-.1-.08-.19-.19-.19s-.19.08-.19.19.08.19.19.19.19-.08.19-.19ZM6.01,6.91c0-.11-.09-.21-.21-.21s-.21.09-.21.21.09.21.21.21.21-.09.21-.21Z"/>
  </g>
</svg>